<?xml version="1.0" standalone="no"?>
<!DOCTYPE svg PUBLIC "-//W3C//DTD SVG 20010904//EN"
 "http://www.w3.org/TR/2001/REC-SVG-20010904/DTD/svg10.dtd">
<svg version="1.0" xmlns="http://www.w3.org/2000/svg"
 width="205.000000pt" height="205.000000pt" viewBox="0 0 205.000000 205.000000"
 preserveAspectRatio="xMidYMid meet">

<g transform="translate(0.000000,205.000000) scale(0.100000,-0.100000)"
fill="#000000" stroke="none">
<path d="M0 1025 l0 -1025 1025 0 1025 0 0 1025 0 1025 -1025 0 -1025 0 0
-1025z m1293 712 c134 -66 212 -163 249 -310 19 -73 20 -90 10 -162 -28 -194
-158 -341 -345 -391 -36 -10 -114 -14 -259 -14 l-208 0 0 -295 0 -295 -120 0
-120 0 0 756 0 755 358 -3 358 -3 77 -38z"/>
<path d="M740 1319 l0 -240 203 3 c223 3 242 8 307 71 72 70 90 178 46 272
-28 60 -56 87 -116 114 -40 18 -65 21 -242 21 l-198 0 0 -241z"/>
</g>
</svg>
